<?xml version="1.0" encoding="utf-8"?>
<!-- Generator: Adobe Illustrator 23.0.1, SVG Export Plug-In . SVG Version: 6.00 Build 0)  -->
<svg version="1.1" id="Layer_1" xmlns="http://www.w3.org/2000/svg" xmlns:xlink="http://www.w3.org/1999/xlink" x="0px" y="0px"
	 viewBox="0 0 4535.4 1417.3" enable-background="new 0 0 4535.4 1417.3" xml:space="preserve">
<path fill="#5675B9" d="M1827.3,887.1V921h-11v-33.7l-37.8-64.1h11.6l31.7,51.3l31.3-51.3h11.4L1827.3,887.1z M2002.6,872.2
	c0,27.6-22.6,49.3-51.2,49.3c-28.7,0-51.3-21.9-51.3-49.3c0-27.6,22.6-49.2,51.3-49.2C1980,823,2002.6,844.7,2002.6,872.2z
	 M1911.5,872.2c0,21.7,18.2,39.1,40,39.1c21.9,0,39.8-17.5,39.8-39.1s-17.9-38.9-39.8-38.9C1929.7,833.3,1911.5,850.6,1911.5,872.2z
	 M2097.1,911.4c18.6,0,29.9-11.2,29.9-30.4v-57.6h11.2V881c0,25.6-15.4,40.7-41,40.7c-25.7,0-41.2-15.2-41.2-40.7v-57.6h11.2V881
	C2067,900.2,2078.4,911.4,2097.1,911.4z M2264.4,921.2l-20.4-31.3c-2,0.1-4.2,0.2-6.3,0.2h-26v31.1h-11.2v-97.9h37.2
	c24.5,0,38.6,12,38.6,32.8c0,16.1-8,27.1-22.1,31.6l23.1,33.5L2264.4,921.2L2264.4,921.2z M2237.6,879.8c17.7,0,27.9-8,27.9-23.4
	c0-14.9-10.1-22.7-27.9-22.7h-26v46.1H2237.6L2237.6,879.8z M2438.1,833.8c-12.6,0-20.9,5.1-20.9,13.5c0,25.5,55,12.1,54.9,47.7
	c0,16.3-14.4,26.7-35.4,26.7c-14.3,0-28.2-6.2-37.5-14.9l5.1-9.7c9.1,8.7,21.5,13.7,32.6,13.7c14.2,0,23-5.7,23-15.3
	c0.1-26.1-54.9-12.4-54.9-47.3c0-15.4,13.6-25.3,33.8-25.3c11.3,0,23,3.6,31.1,9.1l-4.7,10C2456.2,836.1,2445.9,833.8,2438.1,833.8z
	 M2541.3,823.2v87.5h42.9V921h-54v-97.9h11.2V823.2z M2730.6,872.2c0,27.6-22.6,49.3-51.2,49.3c-28.8,0-51.3-21.9-51.3-49.3
	c0-27.6,22.6-49.2,51.3-49.2C2707.9,823,2730.6,844.7,2730.6,872.2z M2639.4,872.2c0,21.7,18.2,39.1,40,39.1s39.7-17.5,39.7-39.1
	s-17.9-38.9-39.7-38.9C2657.5,833.3,2639.4,850.6,2639.4,872.2z M2851.7,873.3h10v35.5c-9.7,7.7-23.3,12.7-36.4,12.7
	c-28.3,0-51.1-21.9-51.1-49.3s22.7-49.2,51.5-49.2c13.6,0,26.7,5.2,36.1,13.5l-6.5,8.1c-8-7.1-18.8-11.3-29.7-11.3
	c-22.3,0-40.2,17.4-40.2,39c0,21.9,18,39.1,40.4,39.1c8.9,0,18.2-3.1,25.7-8.2v-30H2851.7z M2985.6,896.1h-53.3l-10.9,25h-11.9
	l43.9-97.9h11.6l43.7,97.9h-12.1L2985.6,896.1z M2981.1,885.8l-22.2-50.3l-22,50.3H2981.1z M3070.6,823.2l58.7,79.5v-79.5h11v97.9
	h-11.6l-58.7-79.4v79.4h-11.2v-97.9H3070.6z M3346.8,873.3h10v35.5c-9.6,7.7-23.2,12.7-36.4,12.7c-28.3,0-51.1-21.9-51.1-49.3
	s22.7-49.2,51.6-49.2c13.6,0,26.7,5.2,36.1,13.5l-6.5,8.1c-8-7.1-18.7-11.3-29.6-11.3c-22.4,0-40.4,17.4-40.4,39
	c0,21.9,18,39.1,40.4,39.1c8.9,0,18.2-3.1,25.7-8.2v-30H3346.8z M3512,872.2c0,27.6-22.6,49.3-51.2,49.3
	c-28.8,0-51.3-21.9-51.3-49.3c0-27.6,22.6-49.2,51.3-49.2C3489.2,823,3512,844.7,3512,872.2z M3420.8,872.2
	c0,21.7,18.2,39.1,40,39.1c21.9,0,39.7-17.5,39.7-39.1s-17.9-38.9-39.7-38.9C3438.9,833.3,3420.8,850.6,3420.8,872.2z M3633.8,823.2
	v10.3h-55.3v32.8h49.3v10.2h-49.3v34.1h57.1v10.3h-68.2V823L3633.8,823.2L3633.8,823.2z M3721.6,833.8c-12.6,0-20.9,5.1-20.9,13.5
	c0,25.5,55,12.1,54.9,47.7c0,16.3-14.4,26.7-35.4,26.7c-14.3,0-28.2-6.2-37.5-14.9l5.1-9.7c9.1,8.7,21.5,13.7,32.6,13.7
	c14.1,0,23-5.7,23-15.3c0.1-26.1-54.9-12.4-54.9-47.3c0-15.4,13.6-25.3,33.8-25.3c11.3,0,23,3.6,31.1,9.1l-4.7,10
	C3739.9,836.1,3729.6,833.8,3721.6,833.8z M3898.2,823.2v44.4h59.1v-44.4h11.2v97.9h-11.2v-43.4h-59.1v43.4h-11.2v-97.9H3898.2z
	 M4099.3,823.2v10.3H4044v32.8h49.3v10.2H4044v34.1h57.1v10.3h-68.2V823L4099.3,823.2L4099.3,823.2z M4223,921.2l-20.4-31.3
	c-2,0.1-4.2,0.2-6.3,0.2h-26v31.1h-11.3v-97.9h37.2c24.5,0,38.6,12,38.6,32.8c0,16.1-8,27.1-22.1,31.6l23.1,33.5L4223,921.2
	L4223,921.2z M4196.2,879.8c17.7,0,27.9-8,27.9-23.4c0-14.9-10.1-22.7-27.9-22.7h-26v46.1H4196.2L4196.2,879.8z M4361.4,823.2v10.3
	h-55.3v32.8h49.3v10.2h-49.3v34.1h57v10.3h-68.2V823L4361.4,823.2L4361.4,823.2z M1654,457.8v261.4h128.2v30.9h-161.6V457.8H1654z
	 M2114.9,603.9c0,82.3-67.7,147.4-152.8,147.4c-85.6,0-153.2-65.1-153.2-147.4c0-82.2,67.7-147,153.2-147
	C2047.2,456.9,2114.9,521.6,2114.9,603.9z M1842.6,603.9c0,64.7,54.3,116.9,119.4,116.9c65.1,0,118.5-52.4,118.5-116.9
	s-53.5-116.1-118.5-116.1C1897,487.9,1842.6,539.1,1842.6,603.9z M2367.1,750.1l-61.3-93.6c-5.8,0.3-12.1,0.9-18.8,0.9h-77.6V750
	h-33.4V457.7h111c73,0,115.3,35.9,115.3,98.1c0,48-23.7,81-65.9,94.3l68.9,99.7L2367.1,750.1L2367.1,750.1z M2286.8,626.4
	c53.1,0,83-23.7,83-69.7c0-44.6-30.1-68-83-68h-77.6v137.8h77.6V626.4z M2676.1,457.8v30.9h-164.9v98.1h147.4v30.4h-147.5v101.9
	h170.4v30.9h-203.6V457.8H2676.1L2676.1,457.8z M2790.9,457.8l106.9,212l106.4-212h40.9v292.3h-30.9l-0.3-243l-106.4,212.1h-20
	l-106.1-212.1v243h-31.7V457.8H2790.9z M3281.8,457.8v292.3h-33.4V457.8H3281.8z M3594.1,555.9c0,64.4-41.7,101.5-113.9,101.5h-76.3
	V750h-33.5V457.7h109.8C3552.4,457.8,3594.1,493.7,3594.1,555.9z M3562,556.6c0-44.6-30.5-68-83-68h-75.1v137.8h75.1
	C3531.5,626.4,3562,602.7,3562,556.6z M3734.4,489.1c-37.6,0-62.2,15-62.2,40c0,76,164.5,36.4,164.1,142.4
	c0,48.3-43.1,79.7-105.6,79.7c-42.5,0-84.4-18.5-111.9-44.6l15-28.9c27.1,25.8,64.4,40.9,97.3,40.9c42.2,0,68.5-17.1,68.5-45.5
	c0.3-78.1-164.1-36.7-164.1-141.5c0-45.9,40.5-75.1,100.9-75.1c33.8,0,68.5,10.8,92.7,27.1l-14.2,29.5
	C3788.8,496.2,3757.8,489.1,3734.4,489.1z M4021.2,720.8c55.6,0,89-33.4,89-91.1V457.8h33.5v172c0,76.3-45.9,121.5-122.4,121.5
	c-76.8,0-123.1-45.1-123.1-121.5v-172h33.5v172C3931.5,687.3,3965.8,720.8,4021.2,720.8z M4266.8,457.8l106.9,212l106.4-212h40.9
	v292.3h-30.9l-0.4-243l-106.4,212.1h-20l-106.1-212.1v243h-31.7V457.8H4266.8z M522,810.6c-97-126.6-41.8-130.1-31.8-125.2
	c26.6,12,63,47.4,74.6,62.5c99.4-86.1,298.5,102.5,381.9-26.9c17.9-27.8,43.5-84.3,13.3-110c-29.7-21.6-76.4-21.8-138.5-10.7
	c-62.8,2.9-81.8-59.9-40.9-73.3c21-4,42.5-20.6,64.3-38.2l-8.2-6c-81.4-103.6-251.3-25.6-337.7-115.8c-89.2-98.4-75.9-201-51-255.9
	c0,0-1.8,187.1,92.7,235.6c0,0-65.4-77.1-56.3-173.4c0,0,48,202.2,155.3,206.9c0,0-67.2-69.1-40.8-138.5c0,0,19.5,162.3,177.2,152.5
	c0,0-38.4-94.4,13.7-127.6c0,0-10.5,121.6,61.8,189.7c0,0,7.8,7.5,19.7,12.1c20.6-15.1,41.5-27,62.8-26.1c0.6-0.9,1.3-1.9,1.8-2.9
	c37.1-92-15.8-198.9-15.8-198.9c60.8,10.7,61.6,112.6,61.6,112.6c149.4-51.5,105.1-208.9,105.1-208.9
	c51.1,53.9,15.5,143.5,15.5,143.5c97.4-45.5,64-250.6,64-250.6c45.3,85.5,14.5,181.7,14.5,181.7c45-53.2,28.8-145.7,12.3-202.9
	C1074.9,5.2,937.1,44,792.7,153.9C342.4-200.2-75.6,184.4,31.2,591.3c56.4,215.4,223.6,405.1,387,546.9
	C434.1,906.7,477.2,977.3,522,810.6z M885.4,513.8c29.5,9.5,47.6,0,47.6,0C909.2,475.7,885.4,513.8,885.4,513.8z M1216.6,18.9
	c26.3,48.2,40.8,117.3,10.4,202.9c-45.2,116.6-216,109.3-248.3,209.1l-3.2,29.4c30.5-40.9,76.2-49.3,76.2-49.3
	c2.9,29.5,3.6,75.4-53.3,110.3c5.6,16.2,18.2,27.9,25.9,67.6l0,0c0.1,0.5,0.2,0.9,0.3,1.4c1.8,9.6,3.3,20.6,4.4,33.8
	c23.6,235.2-117,321.8-140.2,327.9c-4.8,1.6-3.1,12.2-1.2,26c4.1,49.3,10.9,169.3,10.9,202.6c0.6,9.4-37.6,26.1-32.2-29.1
	c0.4-102.7-54.5-162.3-73.8-194.1c26.8-96.6-13.5-24.2-20.6-11.4c-2.9,11.8-135.6-29.9-148-37.4c-4.7-91.7-18.3-23.9-22.1-1.8
	c2.2,18.2-109.9,111.7-117,123.8c-8.9,12.9-28.4,91.8-37.2,133c179,149.8,345.1,239.7,345.1,239.7s648.7-352.4,761.7-811.8
	C1621.5,318.1,1466.2,56.2,1216.6,18.9z M679.9,964.5l-84.2,84.2c-11.4,10.2-1.9,32.6,3.8,55.2l15.7,78.6c1,12.8-17.8,17.6-23.8,3.1
	l-49.9-119.9c-11.9-20.5,4.3-30.6,10-36.2l80.4-97l50.9,15.3C690.8,952.7,684.7,958.9,679.9,964.5z M941.4,1168.7
	c0,35.8-24.7,28-23.7,13.1c2.1-36.8,4-133.4-1-170.6c-0.5-16-9.5-37.7-2.9-46.4c17.1-9.2,57.5-42.5,57.5-42.5
	C981.5,913.9,954.3,1010.1,941.4,1168.7z M1036.6,430.1c-42.8,22.8-36.1,52.3-36.1,52.3C1047.1,479.5,1036.6,430.1,1036.6,430.1z"/>
</svg>
