<?xml version="1.0" encoding="utf-8"?>
<!-- Generator: Adobe Illustrator 23.0.1, SVG Export Plug-In . SVG Version: 6.00 Build 0)  -->
<svg version="1.1" id="Layer_1" xmlns="http://www.w3.org/2000/svg" xmlns:xlink="http://www.w3.org/1999/xlink" x="0px" y="0px"
	 viewBox="0 0 1587.4 1417.3" enable-background="new 0 0 1587.4 1417.3" xml:space="preserve">
<path fill="#5675B9" d="M523.5,810.6c-97-126.6-41.8-130.1-31.8-125.2c26.6,12,63,47.4,74.6,62.5c99.4-86.1,298.5,102.5,381.9-26.9
	c17.9-27.8,43.5-84.3,13.3-110c-29.7-21.6-76.4-21.8-138.5-10.7c-62.8,2.9-81.8-59.9-40.9-73.3c21-4,42.5-20.6,64.3-38.2l-8.2-6
	C756.8,379.2,586.9,457.2,500.5,367c-89.2-98.4-75.9-201-51-255.9c0,0-1.8,187.1,92.7,235.6c0,0-65.4-77.1-56.3-173.4
	c0,0,48,202.2,155.3,206.9c0,0-67.2-69.1-40.8-138.5c0,0,19.5,162.3,177.2,152.5c0,0-38.4-94.4,13.7-127.6
	c0,0-10.5,121.6,61.8,189.7c0,0,7.8,7.5,19.7,12.1c20.6-15.1,41.5-27,62.8-26.1c0.6-0.9,1.3-1.9,1.8-2.9
	c37.1-92-15.8-198.9-15.8-198.9c60.8,10.7,61.6,112.6,61.6,112.6c149.4-51.5,105.1-208.9,105.1-208.9
	c51.1,53.9,15.5,143.5,15.5,143.5c97.4-45.5,64-250.6,64-250.6c45.3,85.5,14.5,181.7,14.5,181.7c45-53.2,28.8-145.7,12.3-202.9
	c-118.2-10.7-256,28.1-400.4,138C343.9-200.2-74.1,184.4,32.7,591.3c56.4,215.4,223.6,405.1,387,546.9
	C435.6,906.7,478.7,977.3,523.5,810.6z M886.9,513.8c29.5,9.5,47.6,0,47.6,0C910.7,475.7,886.9,513.8,886.9,513.8z M1218.1,18.9
	c26.3,48.2,40.8,117.3,10.4,202.9c-45.2,116.6-216,109.3-248.3,209.1l-3.2,29.4c30.5-40.9,76.2-49.3,76.2-49.3
	c2.9,29.5,3.6,75.4-53.3,110.3c5.6,16.2,18.2,27.9,25.9,67.6l0,0c0.1,0.5,0.2,0.9,0.3,1.4c1.8,9.6,3.3,20.6,4.4,33.8
	c23.6,235.2-117,321.8-140.2,327.9c-4.8,1.6-3.1,12.2-1.2,26c4.1,49.3,10.9,169.3,10.9,202.6c0.6,9.4-37.6,26.1-32.2-29.1
	c0.4-102.7-54.5-162.3-73.8-194.1c26.8-96.6-13.5-24.2-20.6-11.4c-2.9,11.8-135.6-29.9-148-37.4c-4.7-91.7-18.3-23.9-22.1-1.8
	c2.2,18.2-109.9,111.7-117,123.8c-8.9,12.9-28.4,91.8-37.2,133c179,149.8,345.1,239.7,345.1,239.7s648.7-352.4,761.7-811.8
	C1623,318.1,1467.7,56.2,1218.1,18.9z M681.4,964.5l-84.2,84.2c-11.4,10.2-1.9,32.6,3.8,55.2l15.7,78.6c1,12.8-17.8,17.6-23.8,3.1
	L543,1065.7c-11.9-20.5,4.3-30.6,10-36.2l80.4-97l50.9,15.3C692.3,952.7,686.2,958.9,681.4,964.5z M942.9,1168.7
	c0,35.8-24.7,28-23.7,13.1c2.1-36.8,4-133.4-1-170.6c-0.5-16-9.5-37.7-2.9-46.4c17.1-9.2,57.5-42.5,57.5-42.5
	C983,913.9,955.8,1010.1,942.9,1168.7z M1038.1,430.1c-42.8,22.8-36.1,52.3-36.1,52.3C1048.6,479.5,1038.1,430.1,1038.1,430.1z"/>
</svg>
